# Blender v2.93.5 OBJ File: ''
# www.blender.org
mtllib castlefountain.mtl
o Torus
v 2.400000 0.000000 0.000000
v 2.256926 0.297096 0.000000
v 1.935442 0.370473 0.000000
v 1.677632 0.164876 0.000000
v 1.677632 -0.164876 0.000000
v 1.935442 -0.370473 0.000000
v 2.256926 -0.297096 0.000000
v 1.838507 0.000000 -1.542691
v 1.728906 0.297096 -1.450724
v 1.482634 0.370473 -1.244078
v 1.285140 0.164876 -1.078361
v 1.285140 -0.164876 -1.078361
v 1.482634 -0.370473 -1.244078
v 1.728906 -0.297096 -1.450724
v 0.416756 0.000000 -2.363539
v 0.391911 0.297096 -2.222638
v 0.336086 0.370473 -1.906038
v 0.291318 0.164876 -1.652145
v 0.291318 -0.164876 -1.652145
v 0.336086 -0.370473 -1.906038
v 0.391911 -0.297096 -2.222638
v -1.200000 0.000000 -2.078461
v -1.128463 0.297096 -1.954556
v -0.967721 0.370473 -1.676142
v -0.838816 0.164876 -1.452872
v -0.838816 -0.164876 -1.452872
v -0.967721 -0.370473 -1.676142
v -1.128463 -0.297096 -1.954556
v -2.255262 0.000000 -0.820849
v -2.120816 0.297096 -0.771915
v -1.818720 0.370473 -0.661961
v -1.576458 0.164876 -0.573784
v -1.576458 -0.164876 -0.573784
v -1.818720 -0.370473 -0.661961
v -2.120816 -0.297096 -0.771915
v -2.255263 0.000000 0.820848
v -2.120817 0.297096 0.771914
v -1.818721 0.370473 0.661960
v -1.576458 0.164876 0.573784
v -1.576458 -0.164876 0.573784
v -1.818721 -0.370473 0.661960
v -2.120817 -0.297096 0.771914
v -1.200000 0.000000 2.078461
v -1.128463 0.297096 1.954556
v -0.967721 0.370473 1.676142
v -0.838816 0.164876 1.452872
v -0.838816 -0.164876 1.452872
v -0.967721 -0.370473 1.676142
v -1.128463 -0.297096 1.954556
v 0.416756 0.000000 2.363539
v 0.391911 0.297096 2.222638
v 0.336086 0.370473 1.906038
v 0.291318 0.164876 1.652145
v 0.291318 -0.164876 1.652145
v 0.336086 -0.370473 1.906038
v 0.391911 -0.297096 2.222638
v 1.838507 0.000000 1.542691
v 1.728906 0.297096 1.450724
v 1.482634 0.370473 1.244078
v 1.285140 0.164876 1.078361
v 1.285140 -0.164876 1.078361
v 1.482634 -0.370473 1.244078
v 1.728906 -0.297096 1.450724
v 2.256926 0.404303 -0.000000
v 1.935442 0.477679 -0.000000
v 1.728906 0.404303 -1.450724
v 1.482634 0.477679 -1.244078
v 0.391911 0.404303 -2.222638
v 0.336086 0.477679 -1.906038
v -1.128463 0.404303 -1.954556
v -0.967721 0.477679 -1.676142
v -2.120816 0.404303 -0.771915
v -1.818720 0.477679 -0.661961
v -2.120817 0.404303 0.771914
v -1.818721 0.477679 0.661960
v -1.128463 0.404303 1.954556
v -0.967721 0.477679 1.676142
v 0.391911 0.404303 2.222638
v 0.336086 0.477679 1.906038
v 1.728906 0.404303 1.450724
v 1.482634 0.477679 1.244078
v 2.522550 0.500839 0.000000
v 2.163229 0.582852 0.000000
v 1.932385 0.500839 -1.621464
v 1.657130 0.582852 -1.390497
v 0.438036 0.500839 -2.484227
v 0.375641 0.582852 -2.130365
v -1.261275 0.500839 -2.184592
v -1.081614 0.582852 -1.873412
v -2.370421 0.500839 -0.862764
v -2.032771 0.582852 -0.739869
v -2.370422 0.500839 0.862763
v -2.032771 0.582852 0.739868
v -1.261275 0.500839 2.184593
v -1.081614 0.582852 1.873412
v 0.438036 0.500839 2.484227
v 0.375641 0.582852 2.130365
v 1.932385 0.500839 1.621464
v 1.657130 0.582852 1.390497
vt 0.555556 0.571429
vt 0.666667 0.571429
vt 0.666667 0.714286
vt 0.555556 0.714286
vt 1.000000 0.857143
vt 0.888889 0.857143
vt 0.888889 0.857143
vt 1.000000 0.857143
vt 0.555556 0.857143
vt 0.666667 0.857143
vt 0.666667 1.000000
vt 0.555556 1.000000
vt 0.555556 -0.000000
vt 0.666667 -0.000000
vt 0.666667 0.142857
vt 0.555556 0.142857
vt 0.666667 0.285714
vt 0.555556 0.285714
vt 0.666667 0.428571
vt 0.555556 0.428571
vt 0.777778 0.571429
vt 0.777778 0.714286
vt 0.888889 0.714286
vt 0.888889 0.714286
vt 0.777778 0.714286
vt 0.777778 0.857143
vt 0.777778 1.000000
vt 0.777778 -0.000000
vt 0.777778 0.142857
vt 0.777778 0.285714
vt 0.777778 0.428571
vt 0.888889 0.571429
vt 0.444444 0.857143
vt 0.333333 0.857143
vt 0.333333 0.857143
vt 0.444444 0.857143
vt 0.888889 1.000000
vt 0.888889 -0.000000
vt 0.888889 0.142857
vt 0.888889 0.285714
vt 0.888889 0.428571
vt 1.000000 0.571429
vt 1.000000 0.714286
vt 0.555556 0.857143
vt 1.000000 1.000000
vt 1.000000 -0.000000
vt 1.000000 0.142857
vt 1.000000 0.285714
vt 1.000000 0.428571
vt 0.000000 0.571429
vt 0.111111 0.571429
vt 0.111111 0.714286
vt 0.000000 0.714286
vt 0.222222 0.857143
vt 0.222222 0.857143
vt 0.000000 0.857143
vt 0.111111 0.857143
vt 0.111111 1.000000
vt 0.000000 1.000000
vt 0.000000 -0.000000
vt 0.111111 -0.000000
vt 0.111111 0.142857
vt 0.000000 0.142857
vt 0.111111 0.285714
vt 0.000000 0.285714
vt 0.111111 0.428571
vt 0.000000 0.428571
vt 0.222222 0.571429
vt 0.222222 0.714286
vt 0.666667 0.714286
vt 0.222222 1.000000
vt 0.222222 -0.000000
vt 0.222222 0.142857
vt 0.222222 0.285714
vt 0.222222 0.428571
vt 0.333333 0.571429
vt 0.333333 0.714286
vt 0.111111 0.857143
vt 0.333333 1.000000
vt 0.333333 -0.000000
vt 0.333333 0.142857
vt 0.333333 0.285714
vt 0.333333 0.428571
vt 0.444444 0.571429
vt 0.444444 0.714286
vt 0.111111 0.714286
vt 0.000000 0.714286
vt 0.444444 1.000000
vt 0.444444 -0.000000
vt 0.444444 0.142857
vt 0.444444 0.285714
vt 0.444444 0.428571
vt 0.222222 0.714286
vt 0.777778 0.857143
vt 0.666667 0.857143
vt 0.666667 0.857143
vt 0.777778 0.857143
vt 0.444444 0.714286
vt 0.555556 0.714286
vt 0.555556 0.714286
vt 0.444444 0.714286
vt 0.555556 0.857143
vt 0.111111 0.857143
vt 0.222222 0.857143
vt 0.666667 0.714286
vt 0.444444 0.857143
vt 0.333333 0.857143
vt 0.777778 0.714286
vt 0.000000 0.857143
vt 0.333333 0.714286
vt 1.000000 0.714286
vt 0.888889 0.714286
vt 0.888889 0.857143
vt 1.000000 0.714286
vt 1.000000 0.857143
vt 0.000000 0.714286
vt 0.111111 0.714286
vt 0.000000 0.857143
vt 0.222222 0.714286
vt 0.333333 0.714286
vn 0.8561 0.4123 -0.3116
vn 0.7660 0.0000 0.6428
vn -0.6080 0.7624 0.2213
vn -0.9397 0.0000 0.3420
vn -0.6080 -0.7624 0.2213
vn 0.2218 -0.9717 -0.0807
vn 0.8561 -0.4123 -0.3116
vn 0.4555 0.4123 -0.7890
vn -0.1736 0.0000 -0.9848
vn -0.3235 0.7624 0.5604
vn -0.5000 0.0000 0.8660
vn -0.3235 -0.7624 0.5604
vn 0.1180 -0.9717 -0.2044
vn 0.4555 -0.4123 -0.7890
vn -0.1582 0.4123 -0.8972
vn -0.5000 0.0000 -0.8660
vn 0.1124 0.7624 0.6372
vn 0.1736 0.0000 0.9848
vn 0.1124 -0.7624 0.6372
vn -0.0410 -0.9717 -0.2324
vn -0.1582 -0.4123 -0.8972
vn -0.6979 0.4123 -0.5856
vn -0.9397 0.0000 -0.3420
vn 0.4957 0.7624 0.4159
vn 0.4957 -0.7624 0.4159
vn -0.1808 -0.9717 -0.1517
vn -0.6979 -0.4123 -0.5856
vn -0.9111 0.4123 -0.0000
vn 0.1736 0.0000 -0.9848
vn 0.6471 0.7624 0.0000
vn 1.0000 0.0000 0.0000
vn 0.6471 -0.7624 0.0000
vn -0.2360 -0.9717 -0.0000
vn -0.9111 -0.4123 -0.0000
vn -0.6979 0.4123 0.5856
vn 0.5000 0.0000 -0.8660
vn 0.4957 0.7624 -0.4159
vn 0.7660 0.0000 -0.6428
vn 0.4957 -0.7624 -0.4159
vn -0.1808 -0.9717 0.1517
vn -0.6979 -0.4123 0.5856
vn -0.1582 0.4123 0.8972
vn 0.1124 0.7624 -0.6372
vn 0.1124 -0.7624 -0.6372
vn -0.0410 -0.9717 0.2324
vn -0.1582 -0.4123 0.8972
vn 0.4555 0.4123 0.7890
vn -1.0000 0.0000 -0.0000
vn -0.3235 0.7624 -0.5604
vn -0.3235 -0.7624 -0.5604
vn 0.1180 -0.9717 0.2044
vn 0.4555 -0.4123 0.7890
vn 0.8561 0.4123 0.3116
vn -0.7660 0.0000 0.6428
vn -0.6080 0.7624 -0.2213
vn -0.6080 -0.7624 -0.2213
vn 0.2218 -0.9717 0.0807
vn 0.8561 -0.4123 0.3116
vn -0.2205 0.8975 0.3819
vn 0.3390 -0.9327 0.1234
vn -0.4144 0.8975 0.1508
vn 0.3378 0.8975 -0.2835
vn 0.3390 -0.9327 -0.1234
vn -0.4144 0.8975 -0.1508
vn -0.2205 0.8975 -0.3819
vn 0.1804 -0.9327 -0.3124
vn 0.0766 0.8975 -0.4343
vn 0.9397 0.0000 0.3420
vn -0.1736 0.0000 0.9848
vn 0.5000 0.0000 0.8660
vn 0.9397 0.0000 -0.3420
vn -0.7660 0.0000 -0.6428
vn 0.2218 0.9717 -0.0807
vn 0.1180 0.9717 -0.2044
vn -0.0410 0.9717 -0.2324
vn -0.1808 0.9717 -0.1517
vn -0.2360 0.9717 -0.0000
vn -0.1808 0.9717 0.1517
vn -0.0410 0.9717 0.2324
vn 0.1180 0.9717 0.2044
vn 0.2218 0.9717 0.0807
vn -0.2763 -0.9327 -0.2319
vn -0.0626 -0.9327 -0.3552
vn -0.3607 -0.9327 -0.0000
vn 0.3378 0.8975 0.2835
vn 0.0766 0.8975 0.4343
vn 0.4410 0.8975 0.0000
vn -0.0626 -0.9327 0.3552
vn -0.2763 -0.9327 0.2319
vn 0.1804 -0.9327 0.3124
usemtl None
s off
f 1/1/1 8/2/1 9/3/1 2/4/1
f 31/5/2 24/6/2 71/7/2 73/8/2
f 3/9/3 10/10/3 11/11/3 4/12/3
f 4/13/4 11/14/4 12/15/4 5/16/4
f 5/16/5 12/15/5 13/17/5 6/18/5
f 6/18/6 13/17/6 14/19/6 7/20/6
f 7/20/7 14/19/7 8/2/7 1/1/7
f 8/2/8 15/21/8 16/22/8 9/3/8
f 16/22/9 23/23/9 70/24/9 68/25/9
f 10/10/10 17/26/10 18/27/10 11/11/10
f 11/14/11 18/28/11 19/29/11 12/15/11
f 12/15/12 19/29/12 20/30/12 13/17/12
f 13/17/13 20/30/13 21/31/13 14/19/13
f 14/19/14 21/31/14 15/21/14 8/2/14
f 15/21/15 22/32/15 23/23/15 16/22/15
f 59/33/16 52/34/16 79/35/16 81/36/16
f 17/26/17 24/6/17 25/37/17 18/27/17
f 18/28/18 25/38/18 26/39/18 19/29/18
f 19/29/19 26/39/19 27/40/19 20/30/19
f 20/30/20 27/40/20 28/41/20 21/31/20
f 21/31/21 28/41/21 22/32/21 15/21/21
f 22/32/22 29/42/22 30/43/22 23/23/22
f 3/9/23 59/33/23 81/36/23 65/44/23
f 24/6/24 31/5/24 32/45/24 25/37/24
f 25/38/2 32/46/2 33/47/2 26/39/2
f 26/39/25 33/47/25 34/48/25 27/40/25
f 27/40/26 34/48/26 35/49/26 28/41/26
f 28/41/27 35/49/27 29/42/27 22/32/27
f 29/50/28 36/51/28 37/52/28 30/53/28
f 52/34/29 45/54/29 77/55/29 79/35/29
f 31/56/30 38/57/30 39/58/30 32/59/30
f 32/60/31 39/61/31 40/62/31 33/63/31
f 33/63/32 40/62/32 41/64/32 34/65/32
f 34/65/33 41/64/33 42/66/33 35/67/33
f 35/67/34 42/66/34 36/51/34 29/50/34
f 36/51/35 43/68/35 44/69/35 37/52/35
f 9/3/36 16/22/36 68/25/36 66/70/36
f 38/57/37 45/54/37 46/71/37 39/58/37
f 39/61/38 46/72/38 47/73/38 40/62/38
f 40/62/39 47/73/39 48/74/39 41/64/39
f 41/64/40 48/74/40 49/75/40 42/66/40
f 42/66/41 49/75/41 43/68/41 36/51/41
f 43/68/42 50/76/42 51/77/42 44/69/42
f 45/54/38 38/57/38 75/78/38 77/55/38
f 45/54/43 52/34/43 53/79/43 46/71/43
f 46/72/29 53/80/29 54/81/29 47/73/29
f 47/73/44 54/81/44 55/82/44 48/74/44
f 48/74/45 55/82/45 56/83/45 49/75/45
f 49/75/46 56/83/46 50/76/46 43/68/46
f 50/76/47 57/84/47 58/85/47 51/77/47
f 30/53/48 37/52/48 74/86/48 72/87/48
f 52/34/49 59/33/49 60/88/49 53/79/49
f 53/80/16 60/89/16 61/90/16 54/81/16
f 54/81/50 61/90/50 62/91/50 55/82/50
f 55/82/51 62/91/51 63/92/51 56/83/51
f 56/83/52 63/92/52 57/84/52 50/76/52
f 57/84/53 1/1/53 2/4/53 58/85/53
f 37/52/54 44/69/54 76/93/54 74/86/54
f 59/33/55 3/9/55 4/12/55 60/88/55
f 60/89/23 4/13/23 5/16/23 61/90/23
f 61/90/56 5/16/56 6/18/56 62/91/56
f 62/91/57 6/18/57 7/20/57 63/92/57
f 63/92/58 7/20/58 1/1/58 57/84/58
f 69/94/59 67/95/59 85/96/59 87/97/59
f 80/98/60 64/99/60 82/100/60 98/101/60
f 67/95/61 65/44/61 83/102/61 85/96/61
f 77/55/62 75/78/62 93/103/62 95/104/62
f 64/99/63 66/70/63 84/105/63 82/100/63
f 65/44/64 81/36/64 99/106/64 83/102/64
f 81/36/65 79/35/65 97/107/65 99/106/65
f 66/70/66 68/25/66 86/108/66 84/105/66
f 79/35/67 77/55/67 95/104/67 97/107/67
f 38/57/31 31/56/31 73/109/31 75/78/31
f 58/85/68 2/4/68 64/99/68 80/98/68
f 44/69/69 51/77/69 78/110/69 76/93/69
f 10/10/4 3/9/4 65/44/4 67/95/4
f 51/77/70 58/85/70 80/98/70 78/110/70
f 24/6/18 17/26/18 69/94/18 71/7/18
f 17/26/11 10/10/11 67/95/11 69/94/11
f 2/4/71 9/3/71 66/70/71 64/99/71
f 23/23/72 30/43/72 72/111/72 70/24/72
f 82/100/73 84/105/73 85/96/73 83/102/73
f 84/105/74 86/108/74 87/97/74 85/96/74
f 86/108/75 88/112/75 89/113/75 87/97/75
f 88/112/76 90/114/76 91/115/76 89/113/76
f 90/116/77 92/117/77 93/103/77 91/118/77
f 92/117/78 94/119/78 95/104/78 93/103/78
f 94/119/79 96/120/79 97/107/79 95/104/79
f 96/120/80 98/101/80 99/106/80 97/107/80
f 98/101/81 82/100/81 83/102/81 99/106/81
f 70/24/82 72/111/82 90/114/82 88/112/82
f 68/25/83 70/24/83 88/112/83 86/108/83
f 72/87/84 74/86/84 92/117/84 90/116/84
f 73/8/85 71/7/85 89/113/85 91/115/85
f 71/7/86 69/94/86 87/97/86 89/113/86
f 75/78/87 73/109/87 91/118/87 93/103/87
f 76/93/88 78/110/88 96/120/88 94/119/88
f 74/86/89 76/93/89 94/119/89 92/117/89
f 78/110/90 80/98/90 98/101/90 96/120/90
