# Blender v2.93.5 OBJ File: ''
# www.blender.org
mtllib fence.mtl
o Cylinder.003
v -0.007389 0.178943 0.753716
v -0.026816 0.180646 -0.523866
v 0.014149 0.188281 0.759451
v -0.007166 0.185836 -0.519280
v 0.023370 0.207131 0.763193
v 0.003602 0.208335 -0.533364
v 0.019863 0.231247 0.768860
v 0.000744 0.231216 -0.521335
v 0.003573 0.247165 0.743842
v -0.016054 0.246438 -0.519154
v -0.018169 0.248679 0.758665
v -0.038054 0.246797 -0.518060
v -0.035601 0.231446 0.756610
v -0.054980 0.231588 -0.520463
v -0.039636 0.207229 0.760810
v -0.058708 0.208789 -0.506548
v -0.028147 0.188503 0.764964
v -0.047314 0.187423 -0.523263
v -0.010181 0.184824 0.112175
v 0.006979 0.192624 0.113704
v 0.017173 0.208284 0.113040
v 0.012766 0.227840 0.128158
v -0.000568 0.240664 0.110205
v -0.018079 0.240966 0.121853
v -0.031482 0.229472 0.113334
v -0.035748 0.208993 0.113849
v -0.026513 0.191867 0.114866
v -0.030355 0.195138 0.429342
v -0.019732 0.212987 0.433578
v -0.022204 0.234009 0.441061
v -0.037838 0.247237 0.438852
v -0.057940 0.248035 0.441218
v -0.071479 0.233418 0.452492
v -0.074897 0.211989 0.433346
v -0.065946 0.194914 0.444614
v -0.047447 0.186870 0.435812
v 0.008017 0.184685 -0.201428
v 0.024559 0.191518 -0.199824
v 0.034594 0.209326 -0.199049
v 0.031374 0.228431 -0.203664
v 0.017932 0.240294 -0.212776
v -0.001362 0.241327 -0.203127
v -0.014880 0.229104 -0.189724
v -0.017811 0.207905 -0.205309
v -0.008668 0.192049 -0.210908
v 0.017378 0.393362 0.710966
v -0.013447 0.394194 -0.518354
v 0.047946 0.406420 0.717112
v 0.014455 0.401450 -0.513394
v 0.061003 0.432779 0.721036
v 0.030151 0.432904 -0.527263
v 0.055866 0.466502 0.726644
v 0.025786 0.464903 -0.515282
v 0.033254 0.488751 0.701328
v 0.001786 0.486190 -0.513413
v 0.001896 0.490875 0.715737
v -0.029605 0.486695 -0.512736
v -0.022908 0.466779 0.713346
v -0.053678 0.465428 -0.515465
v -0.028765 0.432919 0.717459
v -0.059335 0.433554 -0.501632
v -0.012488 0.406736 0.721823
v -0.042684 0.403671 -0.518137
v -0.005226 0.400288 0.117892
v 0.019203 0.411195 0.119750
v 0.033752 0.433090 0.119285
v 0.027103 0.460441 0.134324
v 0.008532 0.478367 0.116127
v -0.016716 0.478795 0.127441
v -0.035618 0.462721 0.118665
v -0.041714 0.434086 0.119092
v -0.028574 0.410139 0.120277
v -0.005090 0.414839 0.432784
v 0.009952 0.439797 0.437227
v 0.006248 0.469194 0.444670
v -0.015986 0.487691 0.442170
v -0.044702 0.488809 0.444156
v -0.064281 0.468376 0.455165
v -0.068689 0.438406 0.435949
v -0.056203 0.414534 0.447379
v -0.029616 0.403281 0.438925
v 0.028358 0.399967 -0.195311
v 0.051903 0.409521 -0.193392
v 0.066191 0.434421 -0.192419
v 0.061715 0.461134 -0.197087
v 0.042774 0.477718 -0.206447
v 0.015033 0.479169 -0.197165
v -0.004567 0.462084 -0.184025
v -0.008368 0.432436 -0.199671
v 0.004803 0.410261 -0.205103
v -0.003158 0.003159 -0.364596
v -0.003428 0.449670 -0.366991
v -0.025804 0.001001 -0.372878
v -0.023862 0.447941 -0.371061
v -0.036531 -0.000436 -0.391967
v -0.036712 0.452709 -0.393851
v -0.034554 -0.002499 -0.417449
v -0.035214 0.448425 -0.418000
v -0.019379 0.006262 -0.435222
v -0.019041 0.447688 -0.435095
v 0.003031 0.001192 -0.438322
v 0.003499 0.447422 -0.436997
v 0.022084 0.002076 -0.421496
v 0.021885 0.448416 -0.422254
v 0.028000 0.000733 -0.396436
v 0.027539 0.443670 -0.398662
v 0.017616 -0.000701 -0.376046
v 0.017111 0.449540 -0.375504
v 0.000487 0.236633 -0.368407
v -0.017629 0.235974 -0.375380
v -0.029195 0.236085 -0.391060
v -0.025825 0.230744 -0.411838
v -0.013349 0.237034 -0.426173
v 0.004759 0.233056 -0.427709
v 0.019176 0.236153 -0.416606
v 0.025006 0.236082 -0.395472
v 0.016769 0.235750 -0.376911
v -0.014238 0.116554 -0.379448
v -0.026322 0.114942 -0.397392
v -0.025160 0.112251 -0.419566
v -0.010107 0.113051 -0.434491
v 0.010476 0.112328 -0.436721
v 0.025564 0.108523 -0.422371
v 0.030284 0.115322 -0.400173
v 0.022495 0.111409 -0.381691
v 0.003966 0.114420 -0.371984
v 0.005539 0.334538 -0.374776
v -0.011873 0.333860 -0.380780
v -0.023406 0.333460 -0.398720
v -0.021531 0.335009 -0.418933
v -0.008737 0.338214 -0.432274
v 0.011115 0.334942 -0.434699
v 0.026047 0.330382 -0.422853
v 0.030306 0.335933 -0.400864
v 0.021970 0.337908 -0.383633
v 0.001441 0.004723 0.612630
v 0.001537 0.451234 0.615007
v 0.021160 0.002568 0.621770
v 0.019535 0.449506 0.620085
v 0.029584 0.001137 0.640224
v 0.029632 0.454282 0.642122
v 0.026280 -0.000919 0.663832
v 0.026836 0.450004 0.664518
v 0.011658 0.007847 0.679432
v 0.011363 0.449272 0.679421
v -0.008538 0.002778 0.680906
v -0.008876 0.449006 0.679773
v -0.024534 0.003657 0.664035
v -0.024402 0.449996 0.664883
v -0.028302 0.002306 0.640321
v -0.028025 0.445243 0.642552
v -0.017799 0.000866 0.621984
v -0.017315 0.451107 0.621641
v -0.002045 0.238198 0.616017
v 0.013710 0.237541 0.623653
v 0.023089 0.237657 0.638986
v 0.018826 0.232321 0.658125
v 0.006821 0.238615 0.670691
v -0.009440 0.234638 0.670980
v -0.021642 0.237731 0.659732
v -0.025570 0.237654 0.639680
v -0.017096 0.237317 0.622912
v 0.010436 0.118123 0.627194
v 0.020142 0.116516 0.644667
v 0.017765 0.113832 0.665246
v 0.003424 0.114635 0.678199
v -0.015089 0.113912 0.678979
v -0.027694 0.110103 0.664661
v -0.030567 0.116896 0.643691
v -0.022497 0.112977 0.626966
v -0.005367 0.115986 0.619094
v -0.006940 0.336104 0.621659
v 0.008244 0.335428 0.628348
v 0.017458 0.335034 0.645784
v 0.014563 0.336589 0.664492
v 0.002334 0.339798 0.676112
v -0.015538 0.336525 0.677119
v -0.028154 0.331962 0.665144
v -0.030629 0.337507 0.644397
v -0.022145 0.339477 0.628874
vt 1.000000 0.875210
vt 1.000000 1.000000
vt 0.888889 1.000000
vt 0.888889 0.875210
vt 0.777778 1.000000
vt 0.777778 0.875210
vt 0.666667 1.000000
vt 0.666667 0.875210
vt 0.555556 1.000000
vt 0.555556 0.875210
vt 0.444444 1.000000
vt 0.444444 0.875210
vt 0.333333 1.000000
vt 0.333333 0.875210
vt 0.222222 1.000000
vt 0.222222 0.875210
vt 0.404269 0.433851
vt 0.250000 0.490000
vt 0.095731 0.433851
vt 0.013646 0.291676
vt 0.042154 0.130000
vt 0.167915 0.024474
vt 0.332085 0.024474
vt 0.457846 0.130000
vt 0.486354 0.291676
vt 0.111111 1.000000
vt 0.111111 0.875210
vt 0.000000 1.000000
vt 0.000000 0.875210
vt 0.750000 0.490000
vt 0.904269 0.433851
vt 0.986354 0.291676
vt 0.957846 0.130000
vt 0.832085 0.024474
vt 0.667915 0.024474
vt 0.542154 0.130000
vt 0.513646 0.291676
vt 0.595731 0.433851
vt 0.111111 0.622364
vt 0.111111 0.750421
vt 0.000000 0.750421
vt 0.000000 0.622364
vt 0.222222 0.622364
vt 0.222222 0.750421
vt 0.333333 0.622364
vt 0.333333 0.750421
vt 0.444444 0.622364
vt 0.444444 0.750421
vt 0.555556 0.622364
vt 0.555556 0.750421
vt 0.666667 0.622364
vt 0.666667 0.750421
vt 0.777778 0.622364
vt 0.777778 0.750421
vt 0.888889 0.622364
vt 0.888889 0.750421
vt 1.000000 0.622364
vt 1.000000 0.750421
vt 1.000000 0.500000
vt 0.888889 0.500000
vt 0.777778 0.500000
vt 0.666667 0.500000
vt 0.555556 0.500000
vt 0.444444 0.500000
vt 0.333333 0.500000
vt 0.222222 0.500000
vt 0.111111 0.500000
vt 0.000000 0.500000
vt 1.000000 0.875210
vt 1.000000 1.000000
vt 0.888889 1.000000
vt 0.888889 0.875210
vt 0.777778 1.000000
vt 0.777778 0.875210
vt 0.666667 1.000000
vt 0.666667 0.875210
vt 0.555556 1.000000
vt 0.555556 0.875210
vt 0.444444 1.000000
vt 0.444444 0.875210
vt 0.333333 1.000000
vt 0.333333 0.875210
vt 0.222222 1.000000
vt 0.222222 0.875210
vt 0.404269 0.433851
vt 0.250000 0.490000
vt 0.095731 0.433851
vt 0.013646 0.291676
vt 0.042154 0.130000
vt 0.167915 0.024474
vt 0.332085 0.024474
vt 0.457846 0.130000
vt 0.486354 0.291676
vt 0.111111 1.000000
vt 0.111111 0.875210
vt 0.000000 1.000000
vt 0.000000 0.875210
vt 0.750000 0.490000
vt 0.904269 0.433851
vt 0.986354 0.291676
vt 0.957846 0.130000
vt 0.832085 0.024474
vt 0.667915 0.024474
vt 0.542154 0.130000
vt 0.513646 0.291676
vt 0.595731 0.433851
vt 0.111111 0.622364
vt 0.111111 0.750421
vt 0.000000 0.750421
vt 0.000000 0.622364
vt 0.222222 0.622364
vt 0.222222 0.750421
vt 0.333333 0.622364
vt 0.333333 0.750421
vt 0.444444 0.622364
vt 0.444444 0.750421
vt 0.555556 0.622364
vt 0.555556 0.750421
vt 0.666667 0.622364
vt 0.666667 0.750421
vt 0.777778 0.622364
vt 0.777778 0.750421
vt 0.888889 0.622364
vt 0.888889 0.750421
vt 1.000000 0.622364
vt 1.000000 0.750421
vt 1.000000 0.500000
vt 0.888889 0.500000
vt 0.777778 0.500000
vt 0.666667 0.500000
vt 0.555556 0.500000
vt 0.444444 0.500000
vt 0.333333 0.500000
vt 0.222222 0.500000
vt 0.111111 0.500000
vt 0.000000 0.500000
vt 1.000000 0.875210
vt 1.000000 1.000000
vt 0.888889 1.000000
vt 0.888889 0.875210
vt 0.777778 1.000000
vt 0.777778 0.875210
vt 0.666667 1.000000
vt 0.666667 0.875210
vt 0.555556 1.000000
vt 0.555556 0.875210
vt 0.444444 1.000000
vt 0.444444 0.875210
vt 0.333333 1.000000
vt 0.333333 0.875210
vt 0.222222 1.000000
vt 0.222222 0.875210
vt 0.404269 0.433851
vt 0.250000 0.490000
vt 0.095731 0.433851
vt 0.013646 0.291676
vt 0.042154 0.130000
vt 0.167915 0.024474
vt 0.332085 0.024474
vt 0.457846 0.130000
vt 0.486354 0.291676
vt 0.111111 1.000000
vt 0.111111 0.875210
vt 0.000000 1.000000
vt 0.000000 0.875210
vt 0.750000 0.490000
vt 0.904269 0.433851
vt 0.986354 0.291676
vt 0.957846 0.130000
vt 0.832085 0.024474
vt 0.667915 0.024474
vt 0.542154 0.130000
vt 0.513646 0.291676
vt 0.595731 0.433851
vt 0.111111 0.622364
vt 0.111111 0.750421
vt 0.000000 0.750421
vt 0.000000 0.622364
vt 0.222222 0.622364
vt 0.222222 0.750421
vt 0.333333 0.622364
vt 0.333333 0.750421
vt 0.444444 0.622364
vt 0.444444 0.750421
vt 0.555556 0.622364
vt 0.555556 0.750421
vt 0.666667 0.622364
vt 0.666667 0.750421
vt 0.777778 0.622364
vt 0.777778 0.750421
vt 0.888889 0.622364
vt 0.888889 0.750421
vt 1.000000 0.622364
vt 1.000000 0.750421
vt 1.000000 0.500000
vt 0.888889 0.500000
vt 0.777778 0.500000
vt 0.666667 0.500000
vt 0.555556 0.500000
vt 0.444444 0.500000
vt 0.333333 0.500000
vt 0.222222 0.500000
vt 0.111111 0.500000
vt 0.000000 0.500000
vt 1.000000 0.875210
vt 1.000000 1.000000
vt 0.888889 1.000000
vt 0.888889 0.875210
vt 0.777778 1.000000
vt 0.777778 0.875210
vt 0.666667 1.000000
vt 0.666667 0.875210
vt 0.555556 1.000000
vt 0.555556 0.875210
vt 0.444444 1.000000
vt 0.444444 0.875210
vt 0.333333 1.000000
vt 0.333333 0.875210
vt 0.222222 1.000000
vt 0.222222 0.875210
vt 0.404269 0.433851
vt 0.250000 0.490000
vt 0.095731 0.433851
vt 0.013646 0.291676
vt 0.042154 0.130000
vt 0.167915 0.024474
vt 0.332085 0.024474
vt 0.457846 0.130000
vt 0.486354 0.291676
vt 0.111111 1.000000
vt 0.111111 0.875210
vt 0.000000 1.000000
vt 0.000000 0.875210
vt 0.750000 0.490000
vt 0.904269 0.433851
vt 0.986354 0.291676
vt 0.957846 0.130000
vt 0.832085 0.024474
vt 0.667915 0.024474
vt 0.542154 0.130000
vt 0.513646 0.291676
vt 0.595731 0.433851
vt 0.111111 0.622364
vt 0.111111 0.750421
vt 0.000000 0.750421
vt 0.000000 0.622364
vt 0.222222 0.622364
vt 0.222222 0.750421
vt 0.333333 0.622364
vt 0.333333 0.750421
vt 0.444444 0.622364
vt 0.444444 0.750421
vt 0.555556 0.622364
vt 0.555556 0.750421
vt 0.666667 0.622364
vt 0.666667 0.750421
vt 0.777778 0.622364
vt 0.777778 0.750421
vt 0.888889 0.622364
vt 0.888889 0.750421
vt 1.000000 0.622364
vt 1.000000 0.750421
vt 1.000000 0.500000
vt 0.888889 0.500000
vt 0.777778 0.500000
vt 0.666667 0.500000
vt 0.555556 0.500000
vt 0.444444 0.500000
vt 0.333333 0.500000
vt 0.222222 0.500000
vt 0.111111 0.500000
vt 0.000000 0.500000
vn 0.3181 -0.9479 -0.0186
vn 0.8750 -0.4777 -0.0791
vn 0.9830 0.1586 -0.0925
vn 0.6735 0.7368 -0.0592
vn 0.0375 0.9992 0.0144
vn -0.6494 0.7555 0.0865
vn -0.9815 0.1437 0.1266
vn -0.1748 0.0483 -0.9834
vn -0.8401 -0.5308 0.1121
vn -0.3664 -0.9288 0.0551
vn -0.0279 0.0712 0.9971
vn -0.4085 -0.9119 -0.0408
vn -0.8632 -0.4949 -0.0999
vn -0.9660 0.2298 -0.1185
vn -0.6977 0.7098 -0.0965
vn 0.0224 0.9996 -0.0184
vn 0.6452 0.7619 0.0575
vn 0.9882 0.1061 0.1103
vn 0.8398 -0.5328 0.1040
vn 0.4307 -0.9007 0.0567
vn 0.4124 -0.9079 -0.0745
vn 0.8838 -0.4505 -0.1260
vn 0.9782 0.1659 -0.1246
vn 0.7126 0.6956 -0.0909
vn 0.0520 0.9986 -0.0077
vn -0.7015 0.7073 0.0869
vn -0.9859 0.1242 0.1124
vn -0.8812 -0.4638 0.0914
vn -0.3972 -0.9173 0.0278
vn -0.3960 -0.9180 -0.0224
vn -0.8754 -0.4811 -0.0479
vn -0.9804 0.1891 -0.0549
vn -0.6642 0.7467 -0.0352
vn 0.0374 0.9993 0.0020
vn 0.6566 0.7533 0.0375
vn 0.9823 0.1787 0.0554
vn 0.8548 -0.5168 0.0479
vn 0.3962 -0.9178 0.0244
vn 0.3127 -0.9497 -0.0181
vn 0.8704 -0.4839 -0.0906
vn 0.9811 0.1611 -0.1076
vn 0.6665 0.7424 -0.0675
vn 0.0365 0.9991 0.0207
vn -0.6418 0.7596 0.1058
vn -0.9771 0.1456 0.1554
vn -0.1103 0.0351 -0.9933
vn -0.8332 -0.5355 0.1381
vn -0.3608 -0.9301 0.0687
vn -0.0329 0.0507 0.9982
vn -0.3931 -0.9193 -0.0211
vn -0.8719 -0.4850 -0.0674
vn -0.9755 0.2025 -0.0862
vn -0.6886 0.7211 -0.0770
vn 0.0216 0.9994 -0.0283
vn 0.6584 0.7522 0.0256
vn 0.9859 0.1536 0.0663
vn 0.8404 -0.5370 0.0729
vn 0.4197 -0.9067 0.0417
vn 0.4058 -0.9082 -0.1029
vn 0.8755 -0.4513 -0.1727
vn 0.9705 0.1710 -0.1697
vn 0.7091 0.6935 -0.1275
vn 0.0498 0.9986 -0.0149
vn -0.6925 0.7123 0.1144
vn -0.9812 0.1224 0.1494
vn -0.8767 -0.4657 0.1208
vn -0.3896 -0.9203 0.0348
vn -0.3889 -0.9204 -0.0405
vn -0.8687 -0.4874 -0.0888
vn -0.9760 0.1923 -0.1018
vn -0.6554 0.7524 -0.0659
vn 0.0367 0.9993 0.0033
vn 0.6479 0.7587 0.0683
vn 0.9780 0.1816 0.1025
vn 0.8476 -0.5233 0.0886
vn 0.3890 -0.9202 0.0441
vn -0.2503 -0.0964 0.9634
vn -0.8572 -0.1242 0.4998
vn -0.9912 -0.1133 -0.0684
vn -0.7185 -0.0832 -0.6906
vn -0.1041 -0.0313 -0.9941
vn 0.6253 0.0262 -0.7800
vn 0.9765 0.0326 -0.2130
vn 0.0535 0.9983 -0.0240
vn 0.9077 0.0118 0.4194
vn 0.4276 -0.0373 0.9032
vn 0.0133 -0.9997 -0.0207
vn 0.4624 -0.0128 0.8866
vn 0.9164 0.0257 0.3994
vn 0.9681 0.0558 -0.2443
vn 0.6523 0.0767 -0.7541
vn -0.0886 0.0671 -0.9938
vn -0.7319 0.0332 -0.6806
vn -0.9946 -0.0086 -0.1033
vn -0.8161 -0.0462 0.5761
vn -0.3705 -0.0399 0.9280
vn -0.3583 0.0867 0.9296
vn -0.8505 0.1069 0.5151
vn -0.9939 0.0822 -0.0737
vn -0.7415 0.0583 -0.6684
vn -0.1204 0.0199 -0.9925
vn 0.6725 -0.0313 -0.7394
vn 0.9759 -0.0300 -0.2162
vn 0.9064 -0.0112 0.4222
vn 0.4773 0.0256 0.8784
vn 0.4665 0.0339 0.8839
vn 0.9068 -0.0219 0.4209
vn 0.9731 -0.0741 -0.2182
vn 0.6103 -0.0942 -0.7865
vn -0.1145 -0.0577 -0.9917
vn -0.7364 -0.0115 -0.6764
vn -0.9906 0.0400 -0.1305
vn -0.8215 0.0863 0.5637
vn -0.3446 0.0753 0.9357
vn 0.3271 -0.0894 -0.9407
vn 0.8975 -0.1121 -0.4266
vn 0.9863 -0.1016 0.1298
vn 0.6860 -0.0764 0.7236
vn 0.0383 -0.0295 0.9988
vn -0.6919 0.0238 0.7216
vn -0.9896 0.0292 0.1406
vn -0.0615 0.9979 0.0214
vn -0.8856 0.0108 -0.4643
vn -0.3793 -0.0344 -0.9246
vn -0.0164 -0.9996 0.0215
vn -0.4159 -0.0116 -0.9093
vn -0.8951 0.0233 -0.4452
vn -0.9840 0.0499 0.1713
vn -0.7169 0.0699 0.6937
vn 0.0222 0.0624 0.9978
vn 0.6996 0.0302 0.7139
vn 0.9865 -0.0078 0.1634
vn 0.8628 -0.0416 -0.5038
vn 0.4473 -0.0367 -0.8936
vn 0.4352 0.0806 -0.8967
vn 0.8918 0.0968 -0.4419
vn 0.9881 0.0737 0.1349
vn 0.7099 0.0531 0.7023
vn 0.0554 0.0182 0.9983
vn -0.7354 -0.0288 0.6771
vn -0.9892 -0.0269 0.1438
vn -0.8843 -0.0100 -0.4669
vn -0.4316 0.0240 -0.9017
vn -0.4203 0.0317 -0.9068
vn -0.8847 -0.0197 -0.4657
vn -0.9870 -0.0665 0.1460
vn -0.6780 -0.0866 0.7300
vn 0.0494 -0.0542 0.9973
vn 0.7043 -0.0107 0.7099
vn 0.9813 0.0358 0.1892
vn 0.8674 0.0782 -0.4915
vn 0.4216 0.0700 -0.9041
usemtl None
s off
f 37/1/1 2/2/1 4/3/1 38/4/1
f 38/4/2 4/3/2 6/5/2 39/6/2
f 39/6/3 6/5/3 8/7/3 40/8/3
f 40/8/4 8/7/4 10/9/4 41/10/4
f 41/10/5 10/9/5 12/11/5 42/12/5
f 42/12/6 12/11/6 14/13/6 43/14/6
f 43/14/7 14/13/7 16/15/7 44/16/7
f 4/17/8 2/18/8 18/19/8 16/20/8 14/21/8 12/22/8 10/23/8 8/24/8 6/25/8
f 44/16/9 16/15/9 18/26/9 45/27/9
f 45/27/10 18/26/10 2/28/10 37/29/10
f 1/30/11 3/31/11 5/32/11 7/33/11 9/34/11 11/35/11 13/36/11 15/37/11 17/38/11
f 35/39/12 27/40/12 19/41/12 36/42/12
f 34/43/13 26/44/13 27/40/13 35/39/13
f 33/45/14 25/46/14 26/44/14 34/43/14
f 32/47/15 24/48/15 25/46/15 33/45/15
f 31/49/16 23/50/16 24/48/16 32/47/16
f 30/51/17 22/52/17 23/50/17 31/49/17
f 29/53/18 21/54/18 22/52/18 30/51/18
f 28/55/19 20/56/19 21/54/19 29/53/19
f 36/57/20 19/58/20 20/56/20 28/55/20
f 1/59/21 36/57/21 28/55/21 3/60/21
f 3/60/22 28/55/22 29/53/22 5/61/22
f 5/61/23 29/53/23 30/51/23 7/62/23
f 7/62/24 30/51/24 31/49/24 9/63/24
f 9/63/25 31/49/25 32/47/25 11/64/25
f 11/64/26 32/47/26 33/45/26 13/65/26
f 13/65/27 33/45/27 34/43/27 15/66/27
f 15/66/28 34/43/28 35/39/28 17/67/28
f 17/67/29 35/39/29 36/42/29 1/68/29
f 27/40/30 45/27/30 37/29/30 19/41/30
f 26/44/31 44/16/31 45/27/31 27/40/31
f 25/46/32 43/14/32 44/16/32 26/44/32
f 24/48/33 42/12/33 43/14/33 25/46/33
f 23/50/34 41/10/34 42/12/34 24/48/34
f 22/52/35 40/8/35 41/10/35 23/50/35
f 21/54/36 39/6/36 40/8/36 22/52/36
f 20/56/37 38/4/37 39/6/37 21/54/37
f 19/58/38 37/1/38 38/4/38 20/56/38
f 82/69/39 47/70/39 49/71/39 83/72/39
f 83/72/40 49/71/40 51/73/40 84/74/40
f 84/74/41 51/73/41 53/75/41 85/76/41
f 85/76/42 53/75/42 55/77/42 86/78/42
f 86/78/43 55/77/43 57/79/43 87/80/43
f 87/80/44 57/79/44 59/81/44 88/82/44
f 88/82/45 59/81/45 61/83/45 89/84/45
f 49/85/46 47/86/46 63/87/46 61/88/46 59/89/46 57/90/46 55/91/46 53/92/46 51/93/46
f 89/84/47 61/83/47 63/94/47 90/95/47
f 90/95/48 63/94/48 47/96/48 82/97/48
f 46/98/49 48/99/49 50/100/49 52/101/49 54/102/49 56/103/49 58/104/49 60/105/49 62/106/49
f 80/107/50 72/108/50 64/109/50 81/110/50
f 79/111/51 71/112/51 72/108/51 80/107/51
f 78/113/52 70/114/52 71/112/52 79/111/52
f 77/115/53 69/116/53 70/114/53 78/113/53
f 76/117/54 68/118/54 69/116/54 77/115/54
f 75/119/55 67/120/55 68/118/55 76/117/55
f 74/121/56 66/122/56 67/120/56 75/119/56
f 73/123/57 65/124/57 66/122/57 74/121/57
f 81/125/58 64/126/58 65/124/58 73/123/58
f 46/127/59 81/125/59 73/123/59 48/128/59
f 48/128/60 73/123/60 74/121/60 50/129/60
f 50/129/61 74/121/61 75/119/61 52/130/61
f 52/130/62 75/119/62 76/117/62 54/131/62
f 54/131/63 76/117/63 77/115/63 56/132/63
f 56/132/64 77/115/64 78/113/64 58/133/64
f 58/133/65 78/113/65 79/111/65 60/134/65
f 60/134/66 79/111/66 80/107/66 62/135/66
f 62/135/67 80/107/67 81/110/67 46/136/67
f 72/108/68 90/95/68 82/97/68 64/109/68
f 71/112/69 89/84/69 90/95/69 72/108/69
f 70/114/70 88/82/70 89/84/70 71/112/70
f 69/116/71 87/80/71 88/82/71 70/114/71
f 68/118/72 86/78/72 87/80/72 69/116/72
f 67/120/73 85/76/73 86/78/73 68/118/73
f 66/122/74 84/74/74 85/76/74 67/120/74
f 65/124/75 83/72/75 84/74/75 66/122/75
f 64/126/76 82/69/76 83/72/76 65/124/76
f 127/137/77 92/138/77 94/139/77 128/140/77
f 128/140/78 94/139/78 96/141/78 129/142/78
f 129/142/79 96/141/79 98/143/79 130/144/79
f 130/144/80 98/143/80 100/145/80 131/146/80
f 131/146/81 100/145/81 102/147/81 132/148/81
f 132/148/82 102/147/82 104/149/82 133/150/82
f 133/150/83 104/149/83 106/151/83 134/152/83
f 94/153/84 92/154/84 108/155/84 106/156/84 104/157/84 102/158/84 100/159/84 98/160/84 96/161/84
f 134/152/85 106/151/85 108/162/85 135/163/85
f 135/163/86 108/162/86 92/164/86 127/165/86
f 91/166/87 93/167/87 95/168/87 97/169/87 99/170/87 101/171/87 103/172/87 105/173/87 107/174/87
f 125/175/88 117/176/88 109/177/88 126/178/88
f 124/179/89 116/180/89 117/176/89 125/175/89
f 123/181/90 115/182/90 116/180/90 124/179/90
f 122/183/91 114/184/91 115/182/91 123/181/91
f 121/185/92 113/186/92 114/184/92 122/183/92
f 120/187/93 112/188/93 113/186/93 121/185/93
f 119/189/94 111/190/94 112/188/94 120/187/94
f 118/191/95 110/192/95 111/190/95 119/189/95
f 126/193/96 109/194/96 110/192/96 118/191/96
f 91/195/97 126/193/97 118/191/97 93/196/97
f 93/196/98 118/191/98 119/189/98 95/197/98
f 95/197/99 119/189/99 120/187/99 97/198/99
f 97/198/100 120/187/100 121/185/100 99/199/100
f 99/199/101 121/185/101 122/183/101 101/200/101
f 101/200/102 122/183/102 123/181/102 103/201/102
f 103/201/103 123/181/103 124/179/103 105/202/103
f 105/202/104 124/179/104 125/175/104 107/203/104
f 107/203/105 125/175/105 126/178/105 91/204/105
f 117/176/106 135/163/106 127/165/106 109/177/106
f 116/180/107 134/152/107 135/163/107 117/176/107
f 115/182/108 133/150/108 134/152/108 116/180/108
f 114/184/109 132/148/109 133/150/109 115/182/109
f 113/186/110 131/146/110 132/148/110 114/184/110
f 112/188/111 130/144/111 131/146/111 113/186/111
f 111/190/112 129/142/112 130/144/112 112/188/112
f 110/192/113 128/140/113 129/142/113 111/190/113
f 109/194/114 127/137/114 128/140/114 110/192/114
f 172/205/115 137/206/115 139/207/115 173/208/115
f 173/208/116 139/207/116 141/209/116 174/210/116
f 174/210/117 141/209/117 143/211/117 175/212/117
f 175/212/118 143/211/118 145/213/118 176/214/118
f 176/214/119 145/213/119 147/215/119 177/216/119
f 177/216/120 147/215/120 149/217/120 178/218/120
f 178/218/121 149/217/121 151/219/121 179/220/121
f 139/221/122 137/222/122 153/223/122 151/224/122 149/225/122 147/226/122 145/227/122 143/228/122 141/229/122
f 179/220/123 151/219/123 153/230/123 180/231/123
f 180/231/124 153/230/124 137/232/124 172/233/124
f 136/234/125 138/235/125 140/236/125 142/237/125 144/238/125 146/239/125 148/240/125 150/241/125 152/242/125
f 170/243/126 162/244/126 154/245/126 171/246/126
f 169/247/127 161/248/127 162/244/127 170/243/127
f 168/249/128 160/250/128 161/248/128 169/247/128
f 167/251/129 159/252/129 160/250/129 168/249/129
f 166/253/130 158/254/130 159/252/130 167/251/130
f 165/255/131 157/256/131 158/254/131 166/253/131
f 164/257/132 156/258/132 157/256/132 165/255/132
f 163/259/133 155/260/133 156/258/133 164/257/133
f 171/261/134 154/262/134 155/260/134 163/259/134
f 136/263/135 171/261/135 163/259/135 138/264/135
f 138/264/136 163/259/136 164/257/136 140/265/136
f 140/265/137 164/257/137 165/255/137 142/266/137
f 142/266/138 165/255/138 166/253/138 144/267/138
f 144/267/139 166/253/139 167/251/139 146/268/139
f 146/268/140 167/251/140 168/249/140 148/269/140
f 148/269/141 168/249/141 169/247/141 150/270/141
f 150/270/142 169/247/142 170/243/142 152/271/142
f 152/271/143 170/243/143 171/246/143 136/272/143
f 162/244/144 180/231/144 172/233/144 154/245/144
f 161/248/145 179/220/145 180/231/145 162/244/145
f 160/250/146 178/218/146 179/220/146 161/248/146
f 159/252/147 177/216/147 178/218/147 160/250/147
f 158/254/148 176/214/148 177/216/148 159/252/148
f 157/256/149 175/212/149 176/214/149 158/254/149
f 156/258/150 174/210/150 175/212/150 157/256/150
f 155/260/151 173/208/151 174/210/151 156/258/151
f 154/262/152 172/205/152 173/208/152 155/260/152
