# Blender v2.93.5 OBJ File: 'grass2.blend'
# www.blender.org
mtllib singlegrass.mtl
o Plane
v -0.036717 0.326360 0.012213
v 0.012642 0.010860 0.026145
v -0.051367 0.330585 -0.022157
v -0.004978 0.013572 -0.008878
v -0.054641 0.382968 -0.001490
v 0.003349 0.012284 0.007709
v -0.043885 0.357384 0.004641
v 0.007990 0.011571 0.016926
v -0.000819 0.012927 -0.000584
v -0.053955 0.362533 -0.012279
v -0.007600 0.177308 0.021180
v -0.029906 0.181621 -0.014438
v -0.038465 0.210126 0.003871
v -0.028149 0.197212 0.011996
v -0.038208 0.200381 -0.005315
v -0.042176 0.262560 -0.022745
v -0.052629 0.296897 0.000247
v -0.040716 0.281306 0.005390
v -0.048785 0.283312 -0.011378
v -0.029269 0.266769 0.012264
v 0.001155 0.103058 0.025586
v -0.017567 0.107774 -0.009216
v -0.015842 0.124025 0.008798
v -0.008801 0.116332 0.017325
v -0.018121 0.118791 -0.000048
v 0.028132 0.148278 -0.039982
v 0.010531 0.006506 -0.008498
v 0.047469 0.144343 -0.034743
v 0.027872 0.004196 0.001080
v 0.046523 0.160255 -0.055092
v 0.019657 0.005290 -0.003457
v 0.034594 0.156432 -0.047230
v 0.015094 0.005898 -0.005978
v 0.023764 0.004743 -0.001189
v 0.049372 0.152791 -0.046613
v 0.022885 0.088478 -0.019304
v 0.042441 0.087495 -0.009207
v 0.036632 0.102521 -0.021022
v 0.030000 0.096996 -0.021159
v 0.040373 0.096702 -0.015993
v 0.041844 0.126143 -0.017466
v 0.038255 0.137941 -0.039124
v 0.028699 0.135593 -0.033959
v 0.038713 0.134477 -0.030851
v 0.023161 0.126314 -0.027174
v 0.016479 0.047803 -0.010844
v 0.034105 0.046308 -0.001355
v 0.027802 0.054826 -0.008594
v 0.022601 0.052209 -0.010091
v 0.031310 0.051549 -0.005272
v -0.093990 0.239370 -0.003943
v -0.021429 0.004320 -0.002428
v -0.062343 0.251522 -0.009832
v 0.017064 0.008621 -0.008155
v -0.106897 0.293293 -0.010822
v -0.001172 0.006582 -0.005443
v -0.102102 0.267586 -0.008295
v -0.011299 0.005451 -0.003935
v 0.007945 0.007601 -0.006800
v -0.087208 0.275735 -0.010845
v -0.052886 0.144782 -0.012297
v -0.018978 0.150613 -0.016179
v -0.041087 0.165168 -0.010264
v -0.047500 0.156965 -0.009821
v -0.030572 0.160433 -0.012160
v -0.038345 0.201722 -0.012503
v -0.071782 0.230257 -0.008997
v -0.074007 0.215753 -0.007399
v -0.057895 0.221215 -0.009820
v -0.072099 0.193338 -0.007281
v -0.037882 0.082510 -0.012248
v -0.000993 0.088149 -0.018791
v -0.023304 0.098230 -0.019798
v -0.031116 0.091973 -0.016562
v -0.012802 0.094945 -0.019896
v -0.005229 0.242659 0.025348
v 0.020295 0.009200 0.033379
v -0.036574 0.256490 0.026828
v -0.009048 0.012925 0.034023
v -0.008268 0.288577 0.030008
v 0.004813 0.011164 0.033719
v -0.006464 0.270241 0.028252
v 0.012544 0.010182 0.033549
v -0.002127 0.012045 0.033872
v -0.021210 0.277620 0.028858
v -0.002845 0.131377 0.032013
v -0.033033 0.140815 0.033640
v -0.021876 0.158660 0.035884
v -0.012930 0.147457 0.034296
v -0.028039 0.152779 0.035202
v -0.040682 0.200248 0.030921
v -0.023846 0.225550 0.033507
v -0.015526 0.211110 0.032378
v -0.032499 0.217146 0.032696
v -0.006658 0.189604 0.030385
v 0.011866 0.070694 0.033575
v -0.018005 0.076817 0.034632
v -0.006234 0.085352 0.036017
v 0.002547 0.079267 0.035006
v -0.012437 0.082612 0.035584
v 0.046431 0.253540 0.006254
v 0.018001 0.009157 0.001022
v 0.047232 0.254722 0.035294
v 0.019628 0.008518 0.031263
v 0.063615 0.293031 0.022705
v 0.018850 0.008819 0.016934
v 0.053972 0.275810 0.014103
v 0.018423 0.008987 0.008977
v 0.019238 0.008668 0.024097
v 0.057112 0.278205 0.029481
v 0.026727 0.134618 0.001416
v 0.029680 0.135974 0.031632
v 0.039232 0.157845 0.018316
v 0.034551 0.148390 0.010434
v 0.036648 0.149753 0.025662
v 0.037095 0.203854 0.036082
v 0.052444 0.228595 0.020740
v 0.044033 0.218468 0.013960
v 0.044925 0.218848 0.028362
v 0.037935 0.208957 0.006599
v 0.028484 0.078483 0.002181
v 0.030816 0.079326 0.032352
v 0.033729 0.092299 0.017414
v 0.032001 0.087333 0.009919
v 0.033131 0.087848 0.024953
vt 0.744319 0.763158
vt 1.000000 0.763158
vt 1.000000 1.000000
vt 0.744319 1.000000
vt 0.744319 0.263158
vt 1.000000 0.263158
vt 1.000000 0.526316
vt 0.744319 0.526316
vt 0.744319 0.000000
vt 1.000000 0.000000
vt 0.244319 0.526316
vt 0.488639 0.526316
vt 0.488639 0.763158
vt 0.244319 0.763158
vt 0.244319 0.000000
vt 0.488639 0.000000
vt 0.488639 0.263158
vt 0.244319 0.263158
vt 0.488639 1.000000
vt 0.244319 1.000000
vt 0.000000 0.763158
vt 0.000000 1.000000
vt 0.000000 0.263158
vt 0.000000 0.526316
vt 0.000000 0.000000
vt 0.744319 0.763158
vt 1.000000 0.763158
vt 1.000000 1.000000
vt 0.744319 1.000000
vt 0.744319 0.263158
vt 1.000000 0.263158
vt 1.000000 0.526316
vt 0.744319 0.526316
vt 0.744319 0.000000
vt 1.000000 0.000000
vt 0.244319 0.526316
vt 0.488639 0.526316
vt 0.488639 0.763158
vt 0.244319 0.763158
vt 0.244319 0.000000
vt 0.488639 0.000000
vt 0.488639 0.263158
vt 0.244319 0.263158
vt 0.488639 1.000000
vt 0.244319 1.000000
vt 0.000000 0.763158
vt 0.000000 1.000000
vt 0.000000 0.263158
vt 0.000000 0.526316
vt 0.000000 0.000000
vt 0.744319 0.763158
vt 1.000000 0.763158
vt 1.000000 1.000000
vt 0.744319 1.000000
vt 0.744319 0.263158
vt 1.000000 0.263158
vt 1.000000 0.526316
vt 0.744319 0.526316
vt 0.744319 0.000000
vt 1.000000 0.000000
vt 0.244319 0.526316
vt 0.488639 0.526316
vt 0.488639 0.763158
vt 0.244319 0.763158
vt 0.244319 0.000000
vt 0.488639 0.000000
vt 0.488639 0.263158
vt 0.244319 0.263158
vt 0.488639 1.000000
vt 0.244319 1.000000
vt 0.000000 0.763158
vt 0.000000 1.000000
vt 0.000000 0.263158
vt 0.000000 0.526316
vt 0.000000 0.000000
vt 0.744319 0.763158
vt 1.000000 0.763158
vt 1.000000 1.000000
vt 0.744319 1.000000
vt 0.744319 0.263158
vt 1.000000 0.263158
vt 1.000000 0.526316
vt 0.744319 0.526316
vt 0.744319 0.000000
vt 1.000000 0.000000
vt 0.244319 0.526316
vt 0.488639 0.526316
vt 0.488639 0.763158
vt 0.244319 0.763158
vt 0.244319 0.000000
vt 0.488639 0.000000
vt 0.488639 0.263158
vt 0.244319 0.263158
vt 0.488639 1.000000
vt 0.244319 1.000000
vt 0.000000 0.763158
vt 0.000000 1.000000
vt 0.000000 0.263158
vt 0.000000 0.526316
vt 0.000000 0.000000
vt 0.744319 0.763158
vt 1.000000 0.763158
vt 1.000000 1.000000
vt 0.744319 1.000000
vt 0.744319 0.263158
vt 1.000000 0.263158
vt 1.000000 0.526316
vt 0.744319 0.526316
vt 0.744319 0.000000
vt 1.000000 0.000000
vt 0.244319 0.526316
vt 0.488639 0.526316
vt 0.488639 0.763158
vt 0.244319 0.763158
vt 0.244319 0.000000
vt 0.488639 0.000000
vt 0.488639 0.263158
vt 0.244319 0.263158
vt 0.488639 1.000000
vt 0.244319 1.000000
vt 0.000000 0.763158
vt 0.000000 1.000000
vt 0.000000 0.263158
vt 0.000000 0.526316
vt 0.000000 0.000000
vn 0.9493 0.1421 -0.2804
vn 0.8566 0.1458 -0.4949
vn 0.8057 0.1152 -0.5811
vn 0.9101 0.1555 -0.3840
vn 0.9888 0.1459 0.0313
vn 0.4578 0.0108 -0.8890
vn 0.5451 0.0351 -0.8377
vn 0.9189 0.1597 0.3607
vn 0.9779 0.0958 0.1858
vn 0.4461 0.0005 -0.8950
vn 0.6848 0.0493 -0.7270
vn 0.9903 0.0451 0.1317
vn 0.9322 0.2200 -0.2873
vn 0.5309 0.0431 -0.8464
vn 0.7744 0.1570 -0.6129
vn 0.9694 0.2107 0.1263
vn -0.5875 0.1493 0.7953
vn -0.4027 0.1529 0.9025
vn -0.3295 0.1197 0.9365
vn -0.5282 0.1657 0.8328
vn -0.8930 0.1844 0.4106
vn 0.2752 0.2544 0.9271
vn 0.0989 0.3830 0.9184
vn -0.9519 0.0626 0.2998
vn -0.5540 0.6807 0.4793
vn 0.3729 0.4335 0.8204
vn 0.3742 0.4114 0.8311
vn -0.5240 0.6623 0.5355
vn -0.5341 0.3000 0.7904
vn -0.1589 0.2443 0.9566
vn -0.3213 0.2858 0.9028
vn -0.6703 0.2827 0.6862
vn 0.0540 0.1529 0.9868
vn 0.1779 0.1882 0.9659
vn 0.2184 0.1788 0.9593
vn 0.0927 0.1726 0.9806
vn 0.1276 0.0304 0.9914
vn 0.0022 -0.0682 0.9977
vn 0.1406 0.0354 0.9894
vn 0.2612 0.0572 0.9636
vn 0.0444 0.0069 0.9990
vn 0.1591 0.1108 0.9810
vn 0.3366 0.1487 0.9298
vn 0.0781 0.0669 0.9947
vn 0.0498 -0.1160 0.9920
vn 0.1678 -0.0105 0.9858
vn 0.2906 -0.0427 0.9559
vn 0.0833 -0.0572 0.9949
vn 0.0542 0.0250 -0.9982
vn -0.0642 0.0167 -0.9978
vn -0.0938 -0.0006 -0.9956
vn 0.0171 0.0302 -0.9994
vn 0.1294 -0.0305 -0.9911
vn -0.3013 -0.0436 -0.9525
vn -0.2124 -0.0395 -0.9764
vn 0.2737 -0.0138 -0.9617
vn 0.3241 -0.1066 -0.9400
vn -0.2827 -0.0029 -0.9592
vn -0.5182 -0.0214 -0.8550
vn 0.1754 -0.0964 -0.9798
vn 0.0802 0.0139 -0.9967
vn -0.2901 -0.0848 -0.9532
vn -0.1903 -0.0477 -0.9806
vn 0.1813 0.0313 -0.9829
vn -0.9857 0.1653 -0.0319
vn -0.9816 0.1719 0.0835
vn -0.9749 0.1566 0.1581
vn -0.9840 0.1737 0.0403
vn -0.8940 0.1528 -0.4213
vn -0.8138 0.0819 0.5753
vn -0.8076 0.1056 0.5801
vn -0.7913 0.1219 -0.5991
vn -0.7981 0.1634 -0.5799
vn -0.7407 0.1170 0.6615
vn -0.8771 0.1595 0.4531
vn -0.8355 0.1706 -0.5224
vn -0.9860 0.0717 -0.1504
vn -0.8324 0.0068 0.5542
vn -0.9391 0.0559 0.3389
vn -0.8341 0.0167 -0.5513
usemtl None
s off
f 25/1/1 9/2/1 4/3/1 22/4/1
f 24/5/2 8/6/2 6/7/2 23/8/2
f 21/9/3 2/10/3 8/6/3 24/5/3
f 23/8/4 6/7/4 9/2/4 25/1/4
f 17/11/5 13/12/5 15/13/5 19/14/5
f 20/15/6 11/16/6 14/17/6 18/18/6
f 18/18/7 14/17/7 13/12/7 17/11/7
f 19/14/8 15/13/8 12/19/8 16/20/8
f 10/21/9 19/14/9 16/20/9 3/22/9
f 7/23/10 18/18/10 17/11/10 5/24/10
f 1/25/11 20/15/11 18/18/11 7/23/11
f 5/24/12 17/11/12 19/14/12 10/21/12
f 13/12/13 23/8/13 25/1/13 15/13/13
f 11/16/14 21/9/14 24/5/14 14/17/14
f 14/17/15 24/5/15 23/8/15 13/12/15
f 15/13/16 25/1/16 22/4/16 12/19/16
f 50/26/17 34/27/17 29/28/17 47/29/17
f 49/30/18 33/31/18 31/32/18 48/33/18
f 46/34/19 27/35/19 33/31/19 49/30/19
f 48/33/20 31/32/20 34/27/20 50/26/20
f 42/36/21 38/37/21 40/38/21 44/39/21
f 45/40/22 36/41/22 39/42/22 43/43/22
f 43/43/23 39/42/23 38/37/23 42/36/23
f 44/39/24 40/38/24 37/44/24 41/45/24
f 35/46/25 44/39/25 41/45/25 28/47/25
f 32/48/26 43/43/26 42/36/26 30/49/26
f 26/50/27 45/40/27 43/43/27 32/48/27
f 30/49/28 42/36/28 44/39/28 35/46/28
f 38/37/29 48/33/29 50/26/29 40/38/29
f 36/41/30 46/34/30 49/30/30 39/42/30
f 39/42/31 49/30/31 48/33/31 38/37/31
f 40/38/32 50/26/32 47/29/32 37/44/32
f 75/51/33 59/52/33 54/53/33 72/54/33
f 74/55/34 58/56/34 56/57/34 73/58/34
f 71/59/35 52/60/35 58/56/35 74/55/35
f 73/58/36 56/57/36 59/52/36 75/51/36
f 67/61/37 63/62/37 65/63/37 69/64/37
f 70/65/38 61/66/38 64/67/38 68/68/38
f 68/68/39 64/67/39 63/62/39 67/61/39
f 69/64/40 65/63/40 62/69/40 66/70/40
f 60/71/41 69/64/41 66/70/41 53/72/41
f 57/73/42 68/68/42 67/61/42 55/74/42
f 51/75/43 70/65/43 68/68/43 57/73/43
f 55/74/44 67/61/44 69/64/44 60/71/44
f 63/62/45 73/58/45 75/51/45 65/63/45
f 61/66/46 71/59/46 74/55/46 64/67/46
f 64/67/47 74/55/47 73/58/47 63/62/47
f 65/63/48 75/51/48 72/54/48 62/69/48
f 100/76/49 84/77/49 79/78/49 97/79/49
f 99/80/50 83/81/50 81/82/50 98/83/50
f 96/84/51 77/85/51 83/81/51 99/80/51
f 98/83/52 81/82/52 84/77/52 100/76/52
f 92/86/53 88/87/53 90/88/53 94/89/53
f 95/90/54 86/91/54 89/92/54 93/93/54
f 93/93/55 89/92/55 88/87/55 92/86/55
f 94/89/56 90/88/56 87/94/56 91/95/56
f 85/96/57 94/89/57 91/95/57 78/97/57
f 82/98/58 93/93/58 92/86/58 80/99/58
f 76/100/59 95/90/59 93/93/59 82/98/59
f 80/99/60 92/86/60 94/89/60 85/96/60
f 88/87/61 98/83/61 100/76/61 90/88/61
f 86/91/62 96/84/62 99/80/62 89/92/62
f 89/92/63 99/80/63 98/83/63 88/87/63
f 90/88/64 100/76/64 97/79/64 87/94/64
f 125/101/65 109/102/65 104/103/65 122/104/65
f 124/105/66 108/106/66 106/107/66 123/108/66
f 121/109/67 102/110/67 108/106/67 124/105/67
f 123/108/68 106/107/68 109/102/68 125/101/68
f 117/111/69 113/112/69 115/113/69 119/114/69
f 120/115/70 111/116/70 114/117/70 118/118/70
f 118/118/71 114/117/71 113/112/71 117/111/71
f 119/114/72 115/113/72 112/119/72 116/120/72
f 110/121/73 119/114/73 116/120/73 103/122/73
f 107/123/74 118/118/74 117/111/74 105/124/74
f 101/125/75 120/115/75 118/118/75 107/123/75
f 105/124/76 117/111/76 119/114/76 110/121/76
f 113/112/77 123/108/77 125/101/77 115/113/77
f 111/116/78 121/109/78 124/105/78 114/117/78
f 114/117/79 124/105/79 123/108/79 113/112/79
f 115/113/80 125/101/80 122/104/80 112/119/80
