# Blender v2.93.5 OBJ File: ''
# www.blender.org
mtllib trunk.mtl
o Cube_Cube.002
v 0.345648 0.232197 0.360307
v -0.345648 0.232197 0.360307
v -0.345648 0.267855 -0.329691
v 0.345648 0.267855 -0.329691
v 0.087221 3.012794 0.126502
v -0.087221 3.012794 0.126502
v -0.087221 3.014622 -0.047229
v 0.087221 3.014621 -0.047229
v 0.104148 1.980584 -0.003008
v -0.104148 1.980584 -0.003008
v -0.104148 1.977792 -0.210238
v 0.104148 1.977792 -0.210238
v 0.194779 0.875356 0.237447
v -0.194779 0.875356 0.237447
v -0.194779 0.872870 -0.150816
v 0.194779 0.872870 -0.150816
v 0.083130 3.961472 0.000607
v -0.083130 3.961472 0.000607
v -0.083130 3.937960 -0.163982
v 0.083130 3.937959 -0.163982
v 0.099602 2.249060 0.024341
v -0.099602 2.249060 0.024341
v -0.099602 2.275384 -0.172669
v 0.099602 2.275384 -0.172669
v 0.094678 2.512560 0.063113
v -0.094678 2.512560 0.063113
v -0.094678 2.543396 -0.123715
v 0.094678 2.543396 -0.123715
v 0.090046 2.765469 0.099992
v -0.090046 2.765469 0.099992
v -0.090046 2.790461 -0.078074
v 0.090046 2.790461 -0.078074
v 0.105865 1.261492 0.119314
v -0.105865 1.261492 0.119314
v -0.105865 1.226433 -0.089262
v 0.105865 1.226434 -0.089262
v 0.105584 1.506174 0.072807
v -0.105584 1.506173 0.072807
v -0.105584 1.466862 -0.134670
v 0.105584 1.466862 -0.134670
v 0.105304 1.744809 0.027033
v -0.105304 1.744808 0.027033
v -0.105304 1.711704 -0.180503
v 0.105304 1.711704 -0.180503
v 0.091340 3.238807 0.111971
v -0.091340 3.238807 0.111971
v -0.091340 3.217315 -0.069158
v 0.091340 3.217314 -0.069158
v 0.098125 3.484794 0.083851
v -0.098125 3.484795 0.083851
v -0.098125 3.457041 -0.110426
v 0.098125 3.457041 -0.110426
v 0.105613 3.753869 0.052976
v -0.105613 3.753869 0.052976
v -0.105613 3.723997 -0.156127
v 0.105613 3.723997 -0.156127
v 0.448693 0.195236 0.011953
v 0.000000 0.171156 0.459805
v -0.448693 0.195236 0.011953
v -0.000000 0.219317 -0.435898
v 0.101754 3.965299 -0.083914
v -0.000000 3.950910 -0.184645
v -0.101754 3.965299 -0.083914
v 0.000000 3.979690 0.016818
v 0.102161 2.112353 0.005507
v 0.000000 2.244124 0.061280
v -0.102161 2.112353 0.005507
v 0.000000 1.981107 0.035848
v -0.136953 2.262222 -0.074164
v -0.102161 2.126512 -0.197405
v -0.143204 1.979188 -0.106623
v -0.000000 2.280320 -0.209608
v 0.102161 2.126512 -0.197405
v -0.000000 1.977268 -0.249093
v 0.136953 2.262222 -0.074164
v 0.143204 1.979188 -0.106623
v 0.097082 2.382774 0.044095
v 0.000000 2.506778 0.098143
v -0.097082 2.382774 0.044095
v -0.130182 2.527978 -0.030301
v -0.097082 2.413628 -0.147536
v -0.000000 2.549177 -0.158745
v 0.097082 2.413629 -0.147536
v 0.130182 2.527978 -0.030301
v 0.092338 2.639465 0.081666
v 0.000000 2.760783 0.133379
v -0.092338 2.639465 0.081666
v -0.123813 2.777965 0.010959
v -0.092338 2.668997 -0.100593
v -0.000000 2.795147 -0.111462
v 0.092338 2.668997 -0.100593
v 0.123813 2.777965 0.010959
v 0.087997 2.891430 0.117022
v 0.000000 3.012451 0.159076
v -0.087997 2.891430 0.117022
v -0.119930 3.013708 0.039636
v -0.087997 2.906472 -0.057725
v -0.000000 3.014965 -0.079803
v 0.087997 2.906472 -0.057725
v 0.119930 3.013708 0.039636
v 0.117085 1.118642 0.151902
v 0.000000 1.268066 0.158423
v -0.117085 1.118642 0.151902
v 0.000000 0.875823 0.310246
v -0.145564 1.243963 0.015026
v -0.117085 1.094151 -0.080166
v -0.267821 0.874113 0.043316
v -0.000000 1.219860 -0.128370
v 0.117085 1.094151 -0.080166
v -0.000000 0.872404 -0.223615
v 0.145564 1.243963 0.015026
v 0.267821 0.874113 0.043316
v 0.105724 1.384804 0.095928
v 0.000000 1.513545 0.111708
v -0.105724 1.384803 0.095928
v -0.145178 1.486518 -0.030932
v -0.105724 1.345984 -0.111892
v -0.000000 1.459491 -0.173572
v 0.105724 1.345985 -0.111892
v 0.145178 1.486518 -0.030932
v 0.105444 1.626704 0.049792
v -0.000000 1.751016 0.065946
v -0.105444 1.626704 0.049792
v -0.144793 1.728256 -0.076735
v -0.105444 1.588208 -0.157485
v 0.000000 1.705497 -0.219415
v 0.105444 1.588208 -0.157485
v 0.144793 1.728256 -0.076735
v 0.105055 1.860212 0.006479
v -0.105055 1.860213 0.006479
v -0.105055 1.840090 -0.201726
v 0.105055 1.840090 -0.201726
v 0.338381 0.502283 0.368021
v -0.338381 0.502283 0.368021
v -0.338381 0.529602 -0.307395
v 0.338381 0.529602 -0.307395
v 0.088570 3.126242 0.123302
v 0.000000 3.242837 0.145932
v -0.088570 3.126242 0.123302
v -0.125593 3.228061 0.021406
v -0.088570 3.114815 -0.052864
v -0.000000 3.213284 -0.103120
v 0.088570 3.114815 -0.052864
v 0.125593 3.228061 0.021406
v 0.094611 3.358239 0.098360
v -0.000000 3.489999 0.120278
v -0.094611 3.358239 0.098360
v -0.134922 3.470918 -0.013288
v -0.094611 3.332022 -0.088996
v 0.000000 3.451838 -0.146854
v 0.094611 3.332022 -0.088996
v 0.134922 3.470918 -0.013288
v 0.101804 3.616992 0.068682
v -0.000000 3.759470 0.092183
v -0.101804 3.616993 0.068682
v -0.145218 3.738933 -0.051576
v -0.101804 3.588198 -0.132879
v 0.000000 3.718396 -0.195334
v 0.101804 3.588198 -0.132879
v 0.145218 3.738933 -0.051576
v 0.104402 3.884689 0.033064
v -0.104402 3.884689 0.033064
v -0.104402 3.855159 -0.173641
v 0.104402 3.855159 -0.173641
v -0.000000 0.080255 0.004914
v -0.000000 3.998002 -0.088585
v 0.000000 2.109698 0.043553
v -0.140471 2.119432 -0.095949
v -0.000000 2.129167 -0.235451
v 0.140471 2.119432 -0.095949
v 0.000000 2.376989 0.080026
v -0.133488 2.398201 -0.051721
v -0.000000 2.419414 -0.183467
v 0.133488 2.398201 -0.051721
v 0.000000 2.633928 0.115840
v -0.126965 2.654231 -0.009463
v -0.000000 2.674534 -0.134766
v 0.126965 2.654231 -0.009463
v 0.000000 2.888610 0.149787
v -0.120996 2.898951 0.029648
v -0.000000 2.909293 -0.090490
v 0.120996 2.898951 0.029648
v -0.000000 1.123234 0.195414
v -0.160992 1.106397 0.035868
v 0.000000 1.089559 -0.123678
v 0.160992 1.106396 0.035868
v -0.000000 1.392082 0.134895
v -0.145371 1.365394 -0.007982
v 0.000000 1.338706 -0.150858
v 0.145371 1.365394 -0.007982
v -0.000000 1.633922 0.088657
v -0.144985 1.607456 -0.053846
v 0.000000 1.580990 -0.196349
v 0.144985 1.607456 -0.053846
v 0.000000 1.863985 0.045518
v -0.144450 1.850152 -0.097623
v -0.000000 1.836317 -0.240765
v 0.144450 1.850151 -0.097623
v 0.000000 0.491233 0.500624
v -0.471579 0.510541 0.029982
v -0.000000 0.529848 -0.440659
v 0.471579 0.510541 0.029982
v 0.000000 3.128385 0.156333
v -0.121783 3.120529 0.035219
v -0.000000 3.112672 -0.085895
v 0.121783 3.120529 0.035219
v 0.000000 3.363155 0.133489
v -0.130090 3.345130 0.004682
v -0.000000 3.327106 -0.124125
v 0.130090 3.345130 0.004682
v 0.000000 3.622391 0.106475
v -0.139980 3.602595 -0.032099
v -0.000000 3.582799 -0.170672
v 0.139980 3.602595 -0.032099
v 0.000000 3.891790 0.071799
v -0.143752 3.871460 -0.070508
v 0.000000 3.851130 -0.212815
v 0.143752 3.871460 -0.070508
vn 0.2329 -0.9553 0.1819
vn -0.2329 -0.9553 0.1819
vn -0.2319 -0.9309 -0.2824
vn 0.2319 -0.9309 -0.2824
vn 0.2710 0.8761 -0.3989
vn -0.2710 0.8761 -0.3989
vn -0.2710 0.9527 0.1376
vn 0.2710 0.9527 0.1376
vn 0.3498 -0.1220 0.9289
vn -0.3498 -0.1220 0.9289
vn -0.3492 -0.0556 0.9354
vn 0.3492 -0.0556 0.9354
vn -0.9359 -0.0307 0.3510
vn -0.9352 0.0747 -0.3463
vn -0.9351 0.0439 -0.3516
vn -0.9357 -0.0086 0.3528
vn -0.3492 0.1587 -0.9235
vn 0.3492 0.1587 -0.9235
vn 0.3488 0.0845 -0.9334
vn -0.3488 0.0845 -0.9334
vn 0.9352 0.0747 -0.3463
vn 0.9359 -0.0307 0.3510
vn 0.9357 -0.0086 0.3528
vn 0.9351 0.0439 -0.3516
vn 0.3510 -0.1294 0.9274
vn -0.3510 -0.1294 0.9274
vn -0.3507 -0.1306 0.9273
vn 0.3507 -0.1306 0.9273
vn -0.9361 -0.0340 0.3502
vn -0.9360 0.0803 -0.3426
vn -0.9358 0.0800 -0.3434
vn -0.9360 -0.0340 0.3503
vn -0.3510 0.1753 -0.9198
vn 0.3510 0.1753 -0.9198
vn 0.3504 0.1733 -0.9204
vn -0.3505 0.1733 -0.9204
vn 0.9360 0.0803 -0.3426
vn 0.9361 -0.0340 0.3502
vn 0.9360 -0.0340 0.3503
vn 0.9358 0.0800 -0.3434
vn 0.3508 -0.1284 0.9276
vn -0.3508 -0.1284 0.9276
vn -0.3510 -0.1291 0.9274
vn 0.3510 -0.1291 0.9274
vn -0.9361 -0.0339 0.3502
vn -0.9358 0.0809 -0.3430
vn -0.9360 0.0804 -0.3426
vn -0.3506 0.1774 -0.9196
vn 0.3506 0.1774 -0.9196
vn 0.3510 0.1759 -0.9197
vn -0.3510 0.1759 -0.9197
vn 0.9358 0.0809 -0.3430
vn 0.9361 -0.0339 0.3502
vn 0.9360 0.0804 -0.3426
vn 0.3496 -0.0704 0.9342
vn -0.3496 -0.0704 0.9342
vn -0.3502 -0.1196 0.9290
vn 0.3502 -0.1196 0.9290
vn -0.9358 -0.0217 0.3518
vn -0.9356 0.0400 -0.3509
vn -0.9354 0.0761 -0.3454
vn -0.9360 -0.0323 0.3506
vn -0.3493 0.0936 -0.9323
vn 0.3493 0.0936 -0.9323
vn 0.3495 0.1686 -0.9216
vn -0.3495 0.1686 -0.9216
vn 0.9356 0.0400 -0.3509
vn 0.9358 -0.0217 0.3518
vn 0.9360 -0.0323 0.3506
vn 0.9354 0.0761 -0.3454
vn 0.3482 0.2332 0.9080
vn -0.3482 0.2332 0.9080
vn -0.3258 0.4012 0.8561
vn 0.3258 0.4012 0.8561
vn -0.9307 0.1518 0.3327
vn -0.9313 0.0520 -0.3604
vn -0.8539 0.3947 -0.3391
vn -0.8648 0.3959 0.3089
vn -0.3488 -0.0343 -0.9366
vn 0.3488 -0.0343 -0.9366
vn 0.3159 0.3921 -0.8640
vn -0.3159 0.3921 -0.8640
vn 0.9313 0.0520 -0.3604
vn 0.9307 0.1518 0.3327
vn 0.8648 0.3959 0.3089
vn 0.8539 0.3947 -0.3391
vn 0.3511 0.1756 0.9197
vn -0.3511 0.1756 0.9197
vn -0.3509 0.1747 0.9200
vn 0.3509 0.1747 0.9200
vn -0.9363 0.0668 0.3447
vn -0.9363 -0.0640 -0.3453
vn -0.9362 -0.0641 -0.3454
vn -0.9362 0.0667 0.3450
vn -0.3511 -0.1730 -0.9202
vn 0.3511 -0.1730 -0.9202
vn 0.3509 -0.1739 -0.9201
vn -0.3509 -0.1739 -0.9201
vn 0.9363 -0.0640 -0.3453
vn 0.9363 0.0668 0.3447
vn 0.9362 0.0667 0.3450
vn 0.9362 -0.0641 -0.3454
vn 0.3507 0.1780 0.9194
vn -0.3507 0.1780 0.9194
vn -0.3511 0.1761 0.9196
vn 0.3511 0.1761 0.9196
vn -0.9362 0.0672 0.3451
vn -0.9362 -0.0637 -0.3457
vn -0.9363 -0.0639 -0.3453
vn -0.9363 0.0669 0.3448
vn -0.3507 -0.1709 -0.9208
vn 0.3507 -0.1709 -0.9208
vn 0.3511 -0.1726 -0.9203
vn -0.3511 -0.1726 -0.9203
vn 0.9362 -0.0637 -0.3457
vn 0.9362 0.0672 0.3451
vn 0.9363 0.0669 0.3448
vn 0.9363 -0.0639 -0.3453
vn 0.3493 0.0767 0.9339
vn -0.3493 0.0767 0.9339
vn -0.3496 0.1659 0.9221
vn 0.3496 0.1659 0.9221
vn -0.9356 0.0341 0.3515
vn -0.9357 -0.0156 -0.3525
vn -0.9358 -0.0563 -0.3479
vn -0.9357 0.0629 0.3470
vn -0.3494 -0.0554 -0.9353
vn 0.3494 -0.0554 -0.9353
vn 0.3498 -0.1515 -0.9245
vn -0.3498 -0.1515 -0.9245
vn 0.9357 -0.0156 -0.3525
vn 0.9356 0.0341 0.3515
vn 0.9357 0.0629 0.3470
vn 0.9358 -0.0563 -0.3479
vn 0.3189 0.4203 0.8495
vn -0.3189 0.4203 0.8495
vn -0.3274 -0.0734 0.9420
vn 0.3274 -0.0734 0.9420
vn -0.8330 0.4451 0.3287
vn -0.8241 0.4780 -0.3038
vn -0.9444 -0.0026 -0.3289
vn -0.9443 -0.0396 0.3267
vn -0.3112 0.5041 -0.8057
vn 0.3112 0.5041 -0.8057
vn 0.3282 0.0331 -0.9440
vn -0.3282 0.0331 -0.9440
vn 0.8241 0.4780 -0.3038
vn 0.8330 0.4451 0.3287
vn 0.9443 -0.0396 0.3267
vn 0.9444 -0.0026 -0.3289
vn 0.3503 0.0850 0.9328
vn -0.3503 0.0850 0.9328
vn -0.3498 0.0222 0.9366
vn 0.3498 0.0222 0.9366
vn -0.9358 0.0123 0.3523
vn -0.9350 -0.0789 -0.3458
vn -0.9356 -0.0315 -0.3517
vn -0.9358 -0.0014 0.3526
vn -0.3494 -0.1572 -0.9237
vn 0.3494 -0.1572 -0.9237
vn 0.3496 -0.0578 -0.9351
vn -0.3496 -0.0578 -0.9351
vn 0.9350 -0.0789 -0.3458
vn 0.9358 0.0123 0.3523
vn 0.9358 -0.0014 0.3526
vn 0.9356 -0.0315 -0.3517
vn 0.3509 0.0970 0.9314
vn -0.3509 0.0970 0.9314
vn -0.3507 0.0964 0.9315
vn 0.3507 0.0964 0.9315
vn -0.9357 0.0144 0.3524
vn -0.9357 -0.0849 -0.3424
vn -0.9354 -0.0855 -0.3430
vn -0.9358 0.0145 0.3523
vn -0.3508 -0.1678 -0.9213
vn 0.3508 -0.1678 -0.9213
vn 0.3504 -0.1696 -0.9211
vn -0.3504 -0.1696 -0.9211
vn 0.9357 -0.0849 -0.3424
vn 0.9357 0.0144 0.3524
vn 0.9358 0.0145 0.3523
vn 0.9354 -0.0855 -0.3430
vn 0.3509 0.0971 0.9314
vn -0.3509 0.0971 0.9314
vn -0.9357 -0.0849 -0.3423
vn -0.3509 -0.1676 -0.9213
vn 0.3509 -0.1676 -0.9213
vn 0.9357 -0.0849 -0.3423
vn 0.3058 0.4770 0.8240
vn -0.3058 0.4770 0.8240
vn -0.3520 0.1433 0.9250
vn 0.3520 0.1433 0.9250
vn -0.8832 0.3953 0.2525
vn -0.8832 0.3088 -0.3530
vn -0.9360 -0.0389 -0.3500
vn -0.9360 0.0607 0.3469
vn -0.3058 0.2272 -0.9246
vn 0.3058 0.2272 -0.9246
vn 0.3520 -0.1215 -0.9281
vn -0.3520 -0.1215 -0.9281
vn 0.8832 0.3088 -0.3531
vn 0.8832 0.3953 0.2525
vn 0.9360 0.0607 0.3469
vn 0.9360 -0.0389 -0.3500
usemtl None
s off
f 1//1 58//1 165//1 57//1
f 58//2 2//2 59//2 165//2
f 165//3 59//3 3//3 60//3
f 57//4 165//4 60//4 4//4
f 20//5 62//5 166//5 61//5
f 62//6 19//6 63//6 166//6
f 166//7 63//7 18//7 64//7
f 61//8 166//8 64//8 17//8
f 21//9 66//9 167//9 65//9
f 66//10 22//10 67//10 167//10
f 167//11 67//11 10//11 68//11
f 65//12 167//12 68//12 9//12
f 22//13 69//13 168//13 67//13
f 69//14 23//14 70//14 168//14
f 168//15 70//15 11//15 71//15
f 67//16 168//16 71//16 10//16
f 23//17 72//17 169//17 70//17
f 72//18 24//18 73//18 169//18
f 169//19 73//19 12//19 74//19
f 70//20 169//20 74//20 11//20
f 24//21 75//21 170//21 73//21
f 75//22 21//22 65//22 170//22
f 170//23 65//23 9//23 76//23
f 73//24 170//24 76//24 12//24
f 25//25 78//25 171//25 77//25
f 78//26 26//26 79//26 171//26
f 171//27 79//27 22//27 66//27
f 77//28 171//28 66//28 21//28
f 26//29 80//29 172//29 79//29
f 80//30 27//30 81//30 172//30
f 172//31 81//31 23//31 69//31
f 79//32 172//32 69//32 22//32
f 27//33 82//33 173//33 81//33
f 82//34 28//34 83//34 173//34
f 173//35 83//35 24//35 72//35
f 81//36 173//36 72//36 23//36
f 28//37 84//37 174//37 83//37
f 84//38 25//38 77//38 174//38
f 174//39 77//39 21//39 75//39
f 83//40 174//40 75//40 24//40
f 29//41 86//41 175//41 85//41
f 86//42 30//42 87//42 175//42
f 175//43 87//43 26//43 78//43
f 85//44 175//44 78//44 25//44
f 30//45 88//45 176//45 87//45
f 88//46 31//46 89//46 176//46
f 176//47 89//47 27//47 80//47
f 87//45 176//45 80//45 26//45
f 31//48 90//48 177//48 89//48
f 90//49 32//49 91//49 177//49
f 177//50 91//50 28//50 82//50
f 89//51 177//51 82//51 27//51
f 32//52 92//52 178//52 91//52
f 92//53 29//53 85//53 178//53
f 178//53 85//53 25//53 84//53
f 91//54 178//54 84//54 28//54
f 5//55 94//55 179//55 93//55
f 94//56 6//56 95//56 179//56
f 179//57 95//57 30//57 86//57
f 93//58 179//58 86//58 29//58
f 6//59 96//59 180//59 95//59
f 96//60 7//60 97//60 180//60
f 180//61 97//61 31//61 88//61
f 95//62 180//62 88//62 30//62
f 7//63 98//63 181//63 97//63
f 98//64 8//64 99//64 181//64
f 181//65 99//65 32//65 90//65
f 97//66 181//66 90//66 31//66
f 8//67 100//67 182//67 99//67
f 100//68 5//68 93//68 182//68
f 182//69 93//69 29//69 92//69
f 99//70 182//70 92//70 32//70
f 33//71 102//71 183//71 101//71
f 102//72 34//72 103//72 183//72
f 183//73 103//73 14//73 104//73
f 101//74 183//74 104//74 13//74
f 34//75 105//75 184//75 103//75
f 105//76 35//76 106//76 184//76
f 184//77 106//77 15//77 107//77
f 103//78 184//78 107//78 14//78
f 35//79 108//79 185//79 106//79
f 108//80 36//80 109//80 185//80
f 185//81 109//81 16//81 110//81
f 106//82 185//82 110//82 15//82
f 36//83 111//83 186//83 109//83
f 111//84 33//84 101//84 186//84
f 186//85 101//85 13//85 112//85
f 109//86 186//86 112//86 16//86
f 37//87 114//87 187//87 113//87
f 114//88 38//88 115//88 187//88
f 187//89 115//89 34//89 102//89
f 113//90 187//90 102//90 33//90
f 38//91 116//91 188//91 115//91
f 116//92 39//92 117//92 188//92
f 188//93 117//93 35//93 105//93
f 115//94 188//94 105//94 34//94
f 39//95 118//95 189//95 117//95
f 118//96 40//96 119//96 189//96
f 189//97 119//97 36//97 108//97
f 117//98 189//98 108//98 35//98
f 40//99 120//99 190//99 119//99
f 120//100 37//100 113//100 190//100
f 190//101 113//101 33//101 111//101
f 119//102 190//102 111//102 36//102
f 41//103 122//103 191//103 121//103
f 122//104 42//104 123//104 191//104
f 191//105 123//105 38//105 114//105
f 121//106 191//106 114//106 37//106
f 42//107 124//107 192//107 123//107
f 124//108 43//108 125//108 192//108
f 192//109 125//109 39//109 116//109
f 123//110 192//110 116//110 38//110
f 43//111 126//111 193//111 125//111
f 126//112 44//112 127//112 193//112
f 193//113 127//113 40//113 118//113
f 125//114 193//114 118//114 39//114
f 44//115 128//115 194//115 127//115
f 128//116 41//116 121//116 194//116
f 194//117 121//117 37//117 120//117
f 127//118 194//118 120//118 40//118
f 9//119 68//119 195//119 129//119
f 68//120 10//120 130//120 195//120
f 195//121 130//121 42//121 122//121
f 129//122 195//122 122//122 41//122
f 10//123 71//123 196//123 130//123
f 71//124 11//124 131//124 196//124
f 196//125 131//125 43//125 124//125
f 130//126 196//126 124//126 42//126
f 11//127 74//127 197//127 131//127
f 74//128 12//128 132//128 197//128
f 197//129 132//129 44//129 126//129
f 131//130 197//130 126//130 43//130
f 12//131 76//131 198//131 132//131
f 76//132 9//132 129//132 198//132
f 198//133 129//133 41//133 128//133
f 132//134 198//134 128//134 44//134
f 13//135 104//135 199//135 133//135
f 104//136 14//136 134//136 199//136
f 199//137 134//137 2//137 58//137
f 133//138 199//138 58//138 1//138
f 14//139 107//139 200//139 134//139
f 107//140 15//140 135//140 200//140
f 200//141 135//141 3//141 59//141
f 134//142 200//142 59//142 2//142
f 15//143 110//143 201//143 135//143
f 110//144 16//144 136//144 201//144
f 201//145 136//145 4//145 60//145
f 135//146 201//146 60//146 3//146
f 16//147 112//147 202//147 136//147
f 112//148 13//148 133//148 202//148
f 202//149 133//149 1//149 57//149
f 136//150 202//150 57//150 4//150
f 45//151 138//151 203//151 137//151
f 138//152 46//152 139//152 203//152
f 203//153 139//153 6//153 94//153
f 137//154 203//154 94//154 5//154
f 46//155 140//155 204//155 139//155
f 140//156 47//156 141//156 204//156
f 204//157 141//157 7//157 96//157
f 139//158 204//158 96//158 6//158
f 47//159 142//159 205//159 141//159
f 142//160 48//160 143//160 205//160
f 205//161 143//161 8//161 98//161
f 141//162 205//162 98//162 7//162
f 48//163 144//163 206//163 143//163
f 144//164 45//164 137//164 206//164
f 206//165 137//165 5//165 100//165
f 143//166 206//166 100//166 8//166
f 49//167 146//167 207//167 145//167
f 146//168 50//168 147//168 207//168
f 207//169 147//169 46//169 138//169
f 145//170 207//170 138//170 45//170
f 50//171 148//171 208//171 147//171
f 148//172 51//172 149//172 208//172
f 208//173 149//173 47//173 140//173
f 147//174 208//174 140//174 46//174
f 51//175 150//175 209//175 149//175
f 150//176 52//176 151//176 209//176
f 209//177 151//177 48//177 142//177
f 149//178 209//178 142//178 47//178
f 52//179 152//179 210//179 151//179
f 152//180 49//180 145//180 210//180
f 210//181 145//181 45//181 144//181
f 151//182 210//182 144//182 48//182
f 53//183 154//183 211//183 153//183
f 154//184 54//184 155//184 211//184
f 211//184 155//184 50//184 146//184
f 153//183 211//183 146//183 49//183
f 54//171 156//171 212//171 155//171
f 156//185 55//185 157//185 212//185
f 212//185 157//185 51//185 148//185
f 155//171 212//171 148//171 50//171
f 55//186 158//186 213//186 157//186
f 158//187 56//187 159//187 213//187
f 213//187 159//187 52//187 150//187
f 157//186 213//186 150//186 51//186
f 56//188 160//188 214//188 159//188
f 160//180 53//180 153//180 214//180
f 214//180 153//180 49//180 152//180
f 159//188 214//188 152//188 52//188
f 17//189 64//189 215//189 161//189
f 64//190 18//190 162//190 215//190
f 215//191 162//191 54//191 154//191
f 161//192 215//192 154//192 53//192
f 18//193 63//193 216//193 162//193
f 63//194 19//194 163//194 216//194
f 216//195 163//195 55//195 156//195
f 162//196 216//196 156//196 54//196
f 19//197 62//197 217//197 163//197
f 62//198 20//198 164//198 217//198
f 217//199 164//199 56//199 158//199
f 163//200 217//200 158//200 55//200
f 20//201 61//201 218//201 164//201
f 61//202 17//202 161//202 218//202
f 218//203 161//203 53//203 160//203
f 164//204 218//204 160//204 56//204
